<?xml version="1.0" standalone="no"?>
<!DOCTYPE svg PUBLIC "-//W3C//DTD SVG 20010904//EN"
 "http://www.w3.org/TR/2001/REC-SVG-20010904/DTD/svg10.dtd">
<svg version="1.0" xmlns="http://www.w3.org/2000/svg"
 width="1080.000000pt" height="1080.000000pt" viewBox="0 0 1080.000000 1080.000000"
 preserveAspectRatio="xMidYMid meet">

<g transform="translate(0.000000,1080.000000) scale(0.100000,-0.100000)"
fill="#000000" stroke="none">
<path d="M5874 10430 c-6 -15 -14 -77 -15 -115 0 -10 -5 -25 -11 -33 -9 -10
-9 -15 0 -21 7 -4 10 -15 7 -23 -4 -9 0 -18 9 -21 12 -5 15 -21 13 -69 -1 -52
1 -63 14 -60 12 2 15 -7 15 -39 -1 -22 2 -43 7 -46 4 -2 3 -13 -3 -23 -7 -13
-7 -21 1 -25 6 -4 8 -13 5 -21 -3 -7 1 -19 8 -27 20 -20 29 -56 28 -112 0 -27
5 -57 12 -65 33 -38 22 -109 -20 -143 -13 -10 -26 -26 -29 -37 -4 -11 -13 -20
-21 -20 -8 0 -22 -13 -31 -28 -9 -15 -31 -39 -50 -52 -18 -14 -42 -32 -52 -40
-11 -8 -29 -22 -42 -30 -12 -8 -31 -23 -41 -32 -10 -10 -18 -13 -18 -8 0 14
-21 12 -39 -3 -19 -17 -143 -40 -165 -31 -9 3 -23 1 -31 -6 -10 -9 -15 -9 -15
-1 0 17 -31 13 -46 -6 -13 -17 -13 -17 -14 0 0 11 -8 17 -24 17 -14 0 -27 4
-30 9 -4 5 -24 12 -47 16 -41 7 -89 45 -89 70 0 8 -4 15 -9 15 -5 0 -12 20
-15 44 -4 23 -16 53 -27 64 -14 16 -20 37 -21 76 -1 33 -5 53 -11 49 -6 -3 -7
-1 -3 6 4 6 3 17 -2 24 -10 13 -12 21 -15 91 -1 30 -7 51 -15 54 -10 3 -10 7
-1 18 9 11 8 15 -5 20 -9 3 -16 17 -16 29 0 13 -4 26 -8 29 -4 2 -7 21 -7 40
1 20 -2 36 -7 36 -4 0 -8 7 -8 15 0 8 -4 15 -10 15 -5 0 -10 5 -10 10 0 6 -14
26 -31 45 -27 29 -35 32 -56 24 -32 -12 -33 -12 -33 7 0 8 -4 13 -8 10 -5 -3
-26 -6 -46 -8 -21 -1 -40 -8 -43 -15 -3 -7 -11 -13 -18 -13 -8 0 -24 -20 -36
-45 -12 -25 -27 -45 -32 -45 -5 0 -7 -15 -4 -35 3 -19 2 -35 -3 -35 -7 0 -31
-55 -35 -80 -4 -28 -19 -68 -29 -80 -16 -20 -39 -90 -32 -97 3 -4 0 -13 -6
-21 -12 -14 -20 -132 -9 -132 8 0 5 -101 -4 -122 -4 -10 -4 -26 1 -35 4 -10 6
-22 5 -27 -6 -29 -7 -86 -1 -86 4 0 6 -19 3 -42 -8 -94 -8 -110 -2 -114 4 -2
5 -13 2 -24 -4 -14 0 -20 11 -20 9 0 17 -8 17 -17 4 -60 11 -88 24 -95 8 -5
12 -15 9 -22 -3 -8 -1 -17 5 -20 6 -4 8 -13 5 -20 -3 -7 2 -16 10 -19 9 -4 19
-24 22 -47 4 -22 10 -40 15 -40 5 0 9 -9 9 -20 0 -12 7 -20 16 -20 12 0 15 -6
10 -23 -4 -16 1 -26 15 -35 12 -8 19 -21 17 -35 -2 -13 2 -21 9 -20 7 2 10 -3
7 -10 -2 -7 5 -23 16 -35 12 -12 18 -27 15 -32 -3 -6 1 -10 9 -10 10 0 13 -6
10 -15 -4 -8 -1 -15 6 -15 11 0 45 -29 45 -39 1 -16 39 -81 47 -81 5 0 14 -14
20 -30 5 -17 19 -35 29 -41 10 -5 19 -19 19 -29 0 -11 7 -20 15 -20 8 0 20
-10 26 -22 7 -13 17 -26 23 -30 6 -4 12 -12 12 -18 1 -5 2 -14 3 -20 0 -5 8
-10 16 -10 9 0 15 -9 15 -24 0 -14 5 -28 10 -31 6 -3 10 -16 10 -27 0 -12 14
-46 30 -75 17 -30 28 -58 25 -63 -3 -4 -7 -29 -10 -55 -2 -31 -11 -53 -25 -65
-12 -11 -19 -24 -15 -29 3 -6 0 -11 -7 -11 -12 0 -71 -62 -91 -96 -4 -8 -14
-14 -22 -14 -8 0 -20 -9 -27 -20 -7 -11 -18 -20 -25 -20 -7 0 -13 -6 -13 -13
0 -7 -11 -23 -25 -35 -14 -12 -25 -25 -25 -29 0 -5 -13 -14 -29 -21 -19 -9
-28 -18 -24 -28 3 -8 -1 -14 -10 -14 -8 0 -17 -8 -20 -18 -2 -12 -17 -22 -37
-25 -20 -5 -34 -14 -37 -27 -3 -11 -8 -20 -12 -20 -3 0 -19 -12 -35 -27 -16
-15 -37 -27 -47 -28 -10 -1 -28 -12 -39 -25 -11 -13 -20 -19 -20 -14 0 5 -4 4
-8 -2 -13 -19 -107 -79 -119 -76 -7 2 -13 -4 -13 -13 0 -8 -3 -16 -7 -16 -13
-2 -46 -7 -79 -11 -17 -3 -42 -14 -54 -26 -16 -15 -26 -18 -31 -11 -4 7 -12 8
-20 3 -8 -5 -22 -7 -33 -5 -10 1 -22 -3 -27 -11 -6 -9 -32 -13 -83 -13 -46 -1
-80 -6 -90 -14 -11 -10 -16 -10 -16 -2 0 7 -5 9 -11 5 -6 -3 -15 0 -20 7 -6
11 -11 11 -20 2 -9 -9 -17 -9 -33 -1 -12 6 -23 11 -26 11 -3 0 -16 3 -28 8
-13 5 -27 7 -32 4 -5 -3 -11 -1 -15 5 -3 5 -15 10 -26 10 -10 0 -19 5 -19 11
0 6 -9 8 -20 4 -14 -5 -20 -2 -20 9 0 15 -4 18 -32 20 -15 1 -48 35 -48 48 0
4 -5 8 -11 8 -21 0 -54 50 -50 77 1 6 -7 17 -17 25 -11 8 -19 25 -18 43 0 17
-7 44 -16 61 -19 39 -16 73 13 127 6 12 5 17 -3 17 -9 0 -9 3 0 12 7 7 12 22
12 35 0 13 4 31 9 41 5 9 15 31 22 47 8 17 20 35 27 40 7 6 14 18 15 27 2 9 9
23 16 32 7 8 9 21 5 27 -5 9 -2 10 9 6 11 -4 31 7 59 33 24 22 50 40 58 41 8
1 21 3 28 3 7 1 16 7 21 14 4 7 36 14 74 16 37 3 72 8 77 11 6 4 17 1 25 -5 8
-7 21 -10 29 -7 8 3 17 1 20 -6 3 -9 8 -8 15 3 9 13 11 12 11 -4 0 -10 7 -24
16 -31 20 -14 12 -65 -11 -65 -8 0 -31 -9 -50 -20 -20 -11 -41 -17 -47 -14 -7
5 -9 1 -5 -9 3 -9 -4 -26 -21 -42 -20 -20 -23 -28 -13 -34 9 -6 7 -10 -8 -14
-16 -4 -21 -13 -21 -40 0 -20 5 -48 12 -64 6 -15 10 -32 9 -37 -1 -5 3 -12 8
-16 6 -3 12 -17 13 -30 4 -31 48 -77 83 -86 14 -3 25 -10 25 -14 0 -4 11 -7
25 -7 14 0 25 2 25 6 0 3 30 6 68 6 55 -1 72 3 95 22 16 13 35 23 43 23 8 0
14 6 14 13 0 7 9 18 21 25 14 9 18 19 14 32 -4 11 -2 20 3 20 5 0 8 14 7 32
-1 17 4 43 11 57 10 18 10 28 2 38 -6 7 -12 31 -14 53 -4 40 -37 103 -68 129
-9 7 -16 20 -16 27 0 8 -11 16 -24 20 -16 4 -23 11 -19 20 3 9 -2 14 -15 14
-11 0 -27 6 -34 13 -7 8 -19 12 -26 9 -6 -2 -12 3 -12 12 0 10 -9 16 -25 16
-14 0 -28 6 -30 13 -3 6 -21 13 -41 15 -20 1 -41 5 -47 9 -21 13 -88 14 -103
2 -11 -9 -14 -9 -14 1 0 7 -7 10 -15 7 -8 -4 -17 -2 -20 3 -4 6 -17 5 -33 -3
-15 -7 -37 -12 -49 -11 -13 0 -28 -5 -34 -12 -6 -8 -19 -14 -28 -14 -9 0 -25
-7 -35 -15 -10 -8 -23 -12 -28 -9 -5 4 -19 -3 -31 -14 -12 -10 -34 -22 -49
-26 -15 -3 -32 -15 -38 -26 -6 -11 -16 -20 -23 -20 -7 0 -23 -12 -36 -25 -13
-14 -27 -25 -33 -25 -5 0 -6 -5 -3 -10 3 -6 -3 -22 -14 -36 -12 -15 -21 -35
-21 -45 0 -10 -5 -21 -11 -24 -6 -4 -8 -13 -5 -21 3 -7 1 -16 -4 -19 -5 -3 -9
-16 -8 -28 0 -12 -3 -34 -7 -49 -5 -21 -3 -29 9 -34 13 -5 13 -10 4 -27 -12
-23 -19 -155 -8 -162 4 -2 7 -19 8 -36 0 -18 4 -35 9 -38 4 -3 21 -32 37 -63
16 -32 33 -58 38 -58 5 0 8 -6 7 -12 -4 -26 14 -48 63 -73 28 -15 60 -35 71
-46 12 -11 38 -27 59 -36 21 -9 38 -20 38 -25 0 -4 6 -5 14 -2 8 3 17 1 21 -5
3 -6 24 -11 45 -11 21 0 51 -5 67 -11 32 -14 47 -16 88 -18 29 -1 46 -1 112
-1 18 0 48 7 68 16 20 8 40 12 45 9 5 -3 12 0 16 6 4 8 9 7 15 -2 7 -11 9 -11
9 -1 0 9 7 11 19 7 11 -3 22 -2 25 3 3 5 33 16 67 23 34 8 64 19 66 26 4 9 10
10 25 2 15 -8 24 -7 39 7 15 13 19 14 19 3 1 -9 7 -7 19 8 14 17 21 19 30 10
10 -9 15 -8 24 4 14 19 57 31 57 17 0 -6 12 -8 26 -5 18 3 24 1 20 -9 -3 -8
-1 -14 5 -14 6 0 17 -7 26 -15 12 -12 12 -19 3 -30 -6 -8 -9 -19 -5 -25 3 -5
2 -10 -4 -10 -6 0 -19 -10 -31 -22 -11 -12 -20 -19 -20 -15 0 8 -12 -2 -80
-63 -24 -22 -48 -40 -53 -40 -4 0 -5 -5 -1 -12 4 -6 3 -8 -4 -5 -17 11 -41 -3
-35 -21 5 -11 2 -14 -9 -9 -9 3 -25 -3 -36 -14 -12 -10 -26 -19 -32 -19 -5 0
-10 -6 -10 -12 0 -7 -22 -33 -49 -57 -33 -29 -48 -48 -44 -59 5 -11 3 -13 -6
-7 -10 6 -11 2 -6 -15 6 -19 4 -21 -16 -15 -17 6 -21 4 -16 -8 4 -10 -4 -22
-21 -33 -15 -9 -56 -48 -92 -86 -36 -37 -71 -68 -78 -68 -7 0 -12 -6 -10 -12
3 -18 -24 -58 -40 -58 -7 0 -18 -11 -24 -25 -6 -14 -16 -25 -22 -25 -18 -1
-63 -44 -71 -67 -3 -13 -13 -23 -21 -23 -8 0 -14 -4 -14 -9 0 -5 -9 -11 -20
-14 -14 -4 -18 -10 -13 -23 5 -13 3 -15 -7 -9 -9 6 -12 4 -8 -7 4 -8 -2 -20
-13 -26 -10 -7 -19 -22 -19 -35 0 -12 -12 -33 -25 -46 -14 -13 -25 -28 -25
-33 0 -20 -35 -83 -53 -97 -10 -7 -16 -19 -13 -27 3 -7 1 -16 -4 -19 -5 -3
-16 -29 -25 -58 -10 -28 -27 -65 -39 -82 -23 -31 -37 -59 -42 -85 -6 -34 -10
-46 -18 -58 -4 -7 -9 -24 -11 -38 -1 -14 -11 -31 -21 -39 -17 -12 -17 -17 -6
-36 8 -12 10 -24 5 -28 -19 -13 -43 -80 -39 -110 2 -17 0 -31 -4 -31 -13 0
-33 -84 -21 -88 8 -3 8 -9 0 -24 -8 -14 -8 -23 0 -31 15 -15 14 -23 -6 -42
-12 -13 -16 -37 -17 -105 -1 -49 -4 -92 -8 -95 -7 -8 11 -45 26 -57 6 -4 4
-13 -3 -22 -11 -13 -11 -20 2 -40 11 -17 13 -26 5 -34 -8 -8 -8 -15 1 -26 6
-7 11 -18 10 -22 -2 -8 1 -18 18 -61 4 -10 7 -25 8 -33 3 -37 28 -109 36 -104
5 3 9 -7 9 -21 0 -15 7 -43 16 -63 21 -48 42 -93 52 -112 23 -40 32 -61 32
-74 0 -8 11 -28 25 -44 18 -22 21 -32 13 -40 -9 -9 -8 -12 5 -12 10 0 17 -8
17 -19 0 -10 7 -24 15 -31 8 -7 15 -17 15 -22 0 -5 11 -24 24 -41 13 -18 27
-46 31 -64 3 -18 14 -35 25 -38 14 -5 32 -37 29 -53 -1 -2 11 -17 26 -32 15
-16 24 -33 20 -40 -4 -7 1 -14 14 -17 14 -3 21 -13 21 -28 0 -13 7 -25 15 -28
8 -4 21 -21 28 -39 8 -19 28 -48 45 -65 26 -25 30 -35 23 -58 -4 -16 -16 -33
-27 -39 -51 -28 -84 -52 -84 -62 0 -7 -11 -15 -25 -18 -14 -4 -25 -11 -25 -16
0 -5 -6 -7 -14 -4 -7 3 -16 -2 -19 -10 -4 -9 -12 -16 -20 -16 -7 0 -23 -11
-35 -25 -12 -14 -28 -25 -35 -25 -13 0 -72 -58 -72 -72 0 -3 -13 -20 -28 -37
-15 -18 -25 -37 -21 -42 4 -6 1 -15 -7 -19 -27 -17 -61 -202 -38 -215 5 -4 6
-12 2 -18 -13 -20 -14 -79 -2 -93 6 -8 8 -14 5 -14 -4 0 2 -13 13 -29 11 -15
18 -31 14 -34 -3 -3 1 -26 8 -51 8 -29 16 -41 21 -33 6 9 10 8 18 -3 15 -22
12 -30 -7 -24 -22 8 53 -60 87 -78 14 -7 34 -21 45 -31 10 -10 26 -15 33 -12
8 3 21 0 28 -6 7 -6 18 -8 23 -4 7 3 8 0 5 -9 -7 -18 11 -22 22 -5 3 6 16 8
28 5 11 -3 39 -1 61 4 27 6 42 5 46 -2 6 -9 11 -9 21 0 8 6 19 7 27 3 19 -12
130 26 162 55 14 13 30 24 37 24 7 0 12 4 12 9 0 4 14 22 31 40 20 21 31 45
34 69 1 20 4 39 5 42 1 3 2 25 2 50 -1 77 -15 140 -33 140 -5 0 -9 7 -9 15 0
26 -39 95 -54 95 -8 0 -16 7 -20 15 -3 8 -13 15 -21 15 -9 0 -13 5 -10 10 3 5
-1 10 -9 10 -9 0 -16 4 -16 9 0 6 -8 10 -17 10 -35 2 -69 7 -79 14 -15 9 -64
1 -77 -12 -6 -6 -19 -11 -29 -11 -10 0 -18 -7 -18 -15 0 -8 -4 -15 -10 -15 -5
0 -8 -15 -6 -32 2 -18 -1 -39 -6 -46 -8 -9 -6 -12 5 -12 9 0 14 -6 11 -13 -2
-7 5 -22 16 -34 11 -12 20 -27 20 -33 0 -14 13 -13 29 3 11 10 13 10 7 0 -5
-9 0 -13 13 -13 10 0 21 -3 24 -7 2 -5 2 -3 1 4 -2 7 14 11 47 10 27 0 52 3
56 6 11 11 23 8 23 -6 0 -8 9 -22 19 -31 18 -16 18 -21 6 -49 -21 -50 -28 -71
-27 -82 1 -6 -8 -15 -21 -21 -12 -5 -21 -16 -19 -23 4 -19 -17 -41 -39 -41
-10 0 -23 -8 -28 -18 -6 -10 -11 -12 -11 -4 0 10 -5 10 -20 2 -10 -6 -33 -12
-50 -14 -17 -2 -34 -6 -37 -10 -4 -3 -15 2 -25 11 -16 14 -23 15 -38 5 -26
-16 -31 -15 -23 5 4 10 2 14 -4 10 -12 -8 -73 10 -88 26 -7 7 -6 8 3 3 6 -4
12 -2 12 3 0 6 -9 11 -20 11 -11 0 -20 7 -20 15 0 8 -5 15 -11 15 -7 0 -9 10
-6 26 3 19 1 24 -10 19 -12 -4 -14 0 -9 19 3 14 1 26 -5 28 -6 2 -11 16 -11
31 0 15 -5 27 -10 27 -7 0 -6 5 1 13 8 10 7 17 -2 26 -7 7 -8 14 -2 19 6 4 15
17 22 29 10 17 10 22 0 26 -9 3 -9 7 0 18 7 8 15 34 19 57 4 23 12 42 18 42 7
0 20 18 30 41 16 36 146 178 164 179 12 1 78 64 90 87 9 15 18 20 33 16 15 -4
27 0 35 12 10 14 17 15 27 7 8 -7 17 -9 21 -4 4 4 12 -1 17 -11 6 -9 17 -17
24 -17 8 0 15 -4 15 -10 0 -5 7 -10 15 -10 8 0 15 -4 15 -10 0 -5 9 -10 20
-10 11 0 20 -6 20 -14 0 -8 9 -18 20 -21 11 -3 20 -13 20 -21 0 -8 7 -14 15
-14 8 0 22 -11 31 -25 9 -14 22 -25 29 -25 7 0 18 -7 25 -15 7 -9 15 -13 18
-10 3 3 20 -6 38 -20 18 -14 39 -25 47 -25 8 0 28 -7 45 -16 18 -8 36 -13 42
-9 5 3 10 -1 10 -9 0 -9 6 -17 13 -17 52 -5 69 -10 83 -23 8 -9 22 -16 30 -16
8 0 14 -5 14 -11 0 -6 6 -9 14 -6 8 3 30 -5 50 -18 19 -13 37 -21 40 -18 2 3
21 -8 42 -23 21 -16 46 -28 56 -26 10 2 25 -4 34 -13 9 -9 23 -14 30 -11 8 3
14 1 14 -4 0 -6 6 -10 14 -10 7 0 19 -7 26 -15 7 -8 16 -12 21 -9 5 3 9 1 9
-5 0 -5 10 -13 23 -17 12 -3 34 -18 49 -33 20 -20 25 -32 21 -53 -3 -17 -1
-28 5 -28 9 0 10 -86 2 -110 -5 -14 -4 -49 2 -80 5 -23 3 -37 -5 -42 -9 -6 -9
-10 0 -16 18 -12 12 -122 -7 -122 -10 0 -11 -3 -3 -11 8 -8 8 -20 3 -35 -6
-15 -5 -24 3 -27 9 -3 9 -8 -2 -20 -10 -13 -11 -20 -2 -31 13 -15 5 -46 -13
-46 -6 0 -4 -5 4 -10 10 -7 12 -12 4 -18 -10 -6 -27 -93 -29 -143 0 -9 -6 -23
-14 -32 -9 -12 -10 -17 -2 -17 7 0 6 -9 -5 -25 -9 -14 -13 -25 -8 -25 4 0 3
-5 -3 -11 -8 -8 -8 -20 -3 -35 7 -18 6 -24 -5 -24 -9 0 -12 -6 -9 -15 4 -8 1
-15 -5 -15 -6 0 -11 -11 -11 -25 0 -14 -4 -25 -8 -25 -12 0 -44 -99 -36 -111
3 -5 1 -9 -5 -9 -13 0 -43 -63 -45 -95 0 -13 -7 -27 -15 -30 -11 -4 -11 -8 -1
-20 9 -10 9 -15 1 -15 -6 0 -11 -9 -11 -19 0 -11 -4 -22 -10 -26 -5 -3 -7 -11
-4 -18 2 -7 -6 -23 -18 -37 -14 -15 -18 -25 -11 -27 13 -5 6 -31 -13 -50 -7
-7 -10 -22 -7 -33 3 -11 0 -27 -7 -35 -7 -8 -10 -24 -7 -35 3 -11 2 -22 -3
-25 -4 -3 -7 -21 -6 -40 1 -19 -2 -35 -6 -35 -4 0 -6 -26 -4 -57 2 -32 -1 -64
-7 -71 -8 -10 -7 -16 4 -22 10 -7 11 -12 3 -20 -8 -8 -7 -30 2 -78 21 -110 32
-146 50 -159 10 -7 15 -16 11 -19 -9 -10 25 -64 40 -64 7 0 10 -7 7 -15 -4 -9
0 -15 9 -15 9 0 19 -10 23 -22 3 -13 24 -40 45 -60 22 -21 39 -42 39 -48 0 -5
7 -10 15 -10 8 0 15 -4 15 -10 0 -5 6 -10 14 -10 7 0 32 -18 54 -40 22 -22 47
-40 55 -40 8 0 17 -5 19 -11 2 -6 28 -19 58 -30 30 -10 62 -22 70 -26 8 -3 17
-7 20 -8 3 -1 12 -5 21 -9 9 -4 29 -9 45 -11 16 -2 29 -4 29 -5 0 -5 67 -13
100 -12 22 1 47 -1 55 -5 28 -11 69 -13 75 -3 3 5 12 7 20 3 8 -3 15 0 15 7 0
7 6 10 14 7 18 -7 128 23 137 36 4 6 14 7 23 4 8 -3 18 -2 21 3 4 6 16 10 29
10 12 0 27 5 34 12 7 7 12 9 12 5 0 -4 18 4 40 18 22 14 44 25 50 25 6 0 8 5
5 10 -3 6 2 13 12 16 39 13 63 28 63 41 0 7 9 13 20 13 17 0 60 32 60 44 0 3
14 20 30 38 17 18 33 44 37 58 3 14 11 32 18 40 7 8 15 27 19 42 4 19 11 26
21 22 16 -7 20 6 6 22 -5 5 -2 24 7 44 8 19 16 42 18 50 1 8 5 33 9 55 4 22 7
76 6 120 -1 44 -2 122 -2 172 0 85 -9 114 -23 81 -3 -7 -5 3 -4 22 0 51 -11
122 -23 136 -5 6 -11 25 -14 40 -8 67 -25 117 -44 138 -12 12 -21 29 -21 37 0
8 -5 20 -12 27 -8 8 -8 15 2 27 8 10 9 15 1 15 -6 0 -11 6 -11 13 0 7 -10 23
-23 37 -12 14 -21 33 -19 42 2 10 -4 32 -12 50 -9 17 -16 40 -16 50 0 10 -7
21 -15 24 -8 4 -12 10 -9 15 3 5 -2 24 -11 43 -9 19 -18 42 -19 51 -1 9 -7 20
-12 23 -9 7 -12 20 -17 69 -1 13 -8 23 -14 23 -7 0 -13 5 -13 11 0 5 5 7 10 4
6 -3 10 -1 10 4 0 6 -5 11 -11 11 -5 0 -8 4 -5 8 4 8 -6 56 -22 102 -2 8 -6
24 -8 35 -1 11 -7 42 -14 69 -6 30 -7 52 -1 55 5 4 5 27 -1 61 -5 30 -11 83
-13 117 -1 34 -6 66 -9 71 -4 6 -3 13 2 16 9 5 7 162 -2 215 -4 19 -2 39 5 47
6 8 8 14 5 14 -8 0 45 73 57 78 4 2 7 11 7 19 0 10 6 13 16 9 12 -5 15 -2 10
9 -3 9 -2 13 4 10 5 -3 14 3 19 14 6 10 31 31 55 45 25 14 52 36 60 47 8 12
19 18 25 14 6 -3 14 0 17 8 3 9 17 18 31 22 17 4 23 11 19 22 -5 11 -2 14 9 9
9 -3 18 1 21 9 4 8 10 12 15 9 5 -3 9 1 9 9 0 19 32 47 54 47 9 0 19 7 22 15
4 8 10 13 15 10 4 -3 13 3 18 13 6 11 30 29 53 40 44 21 69 38 116 81 29 25
90 68 128 89 13 7 31 23 41 36 10 12 23 21 30 19 6 -2 19 7 29 21 9 14 23 26
30 26 8 0 17 7 20 15 4 8 12 15 19 15 8 0 17 9 20 20 3 11 11 20 16 20 5 0 23
10 38 21 16 12 34 18 40 15 6 -4 14 0 17 8 3 9 10 16 16 16 5 0 25 12 43 26
23 17 32 31 28 41 -4 11 -2 14 5 9 7 -4 12 -3 12 3 0 6 7 8 15 5 9 -4 15 0 15
10 0 11 9 16 31 16 22 0 32 5 36 20 3 11 14 20 24 20 10 0 26 12 36 26 10 15
27 36 39 49 11 12 18 28 15 36 -4 12 -2 12 12 0 15 -11 17 -11 17 2 0 8 7 20
15 27 8 7 15 24 15 37 0 14 8 37 18 51 13 19 18 44 17 84 0 32 2 58 6 58 11 0
17 38 7 48 -5 5 -3 14 6 21 15 13 12 64 -5 86 -4 6 -10 27 -14 48 -7 36 -34
77 -95 145 -17 19 -30 40 -30 48 0 8 -11 19 -25 24 -16 6 -25 17 -25 31 0 12
-16 38 -36 57 -20 19 -33 40 -30 48 3 8 0 14 -7 14 -15 0 -39 49 -31 62 4 5
-2 25 -12 44 -18 33 -18 36 -1 45 9 6 17 16 17 23 0 7 14 27 30 44 17 18 30
36 30 42 0 5 6 7 14 4 9 -3 18 6 25 27 18 52 15 59 -19 49 -23 -7 -32 -5 -39
7 -7 14 -11 13 -30 -6 -11 -11 -29 -21 -39 -21 -10 0 -25 -11 -32 -25 -8 -16
-22 -25 -36 -25 -13 0 -28 -8 -33 -19 -6 -10 -22 -22 -36 -25 -14 -4 -25 -13
-25 -21 0 -8 -6 -12 -15 -9 -8 3 -26 -6 -42 -22 -15 -16 -34 -27 -40 -26 -8 2
-10 -3 -7 -13 4 -11 0 -15 -15 -15 -20 0 -66 -27 -99 -57 -7 -7 -19 -13 -26
-13 -7 0 -21 -9 -31 -20 -10 -12 -25 -18 -32 -16 -7 3 -19 -3 -25 -14 -7 -11
-22 -20 -34 -20 -11 0 -31 -11 -44 -25 -13 -14 -29 -25 -37 -25 -7 0 -13 -4
-13 -10 0 -5 -7 -10 -15 -10 -8 0 -26 -11 -40 -26 -14 -14 -29 -23 -34 -19 -5
3 -12 1 -16 -5 -3 -5 -15 -10 -26 -10 -10 0 -19 -5 -19 -11 0 -5 -4 -8 -9 -5
-5 3 -14 -1 -21 -9 -7 -8 -19 -15 -26 -15 -8 0 -14 -4 -14 -10 0 -14 -52 -38
-69 -32 -8 2 -11 0 -7 -6 3 -6 -7 -16 -24 -24 -16 -7 -30 -18 -30 -25 0 -8 -8
-9 -27 -3 -16 4 -41 11 -56 15 -21 4 -26 9 -19 18 14 17 3 67 -15 67 -11 0
-13 4 -6 13 6 6 10 30 10 52 0 22 3 50 7 63 6 17 3 22 -9 22 -11 0 -15 6 -11
18 20 62 23 115 9 144 -13 25 -13 32 -2 39 8 5 9 9 3 9 -8 0 -10 22 -7 73 3
39 5 79 5 87 -1 8 -2 61 -4 118 -1 56 -6 102 -10 102 -4 0 -8 5 -8 11 0 5 5 7
11 3 8 -5 10 3 7 27 -3 19 -1 42 4 52 6 12 6 23 -2 33 -7 8 -9 21 -5 31 11 26
12 46 1 61 -5 7 -4 12 3 12 6 0 11 16 11 35 0 19 -5 35 -10 35 -16 0 -2 86 21
131 13 24 28 39 40 39 10 0 19 7 19 15 0 13 19 20 43 16 4 -1 18 4 30 11 12 7
26 11 31 10 5 -2 30 3 55 11 59 19 201 31 201 17 0 -6 29 -8 79 -4 70 5 90 2
158 -22 45 -16 92 -40 111 -58 94 -88 122 -119 115 -129 -9 -15 -4 -58 9 -74
7 -9 7 -17 0 -25 -13 -16 -17 -58 -8 -79 5 -11 -2 -26 -18 -44 -14 -15 -26
-33 -26 -39 0 -6 -12 -26 -27 -43 -16 -17 -38 -43 -50 -57 -14 -17 -27 -24
-38 -20 -11 5 -18 0 -22 -15 -3 -12 -10 -21 -17 -20 -6 1 -23 -3 -38 -9 -15
-6 -35 -9 -45 -5 -13 5 -15 2 -10 -11 5 -14 3 -16 -12 -11 -11 3 -22 2 -25 -3
-3 -5 -18 -7 -33 -5 -16 2 -38 4 -50 4 -13 -1 -23 3 -23 8 0 4 -11 6 -24 4
-16 -3 -28 2 -39 17 -8 12 -20 19 -26 15 -6 -3 -11 1 -11 9 0 10 -6 13 -17 9
-12 -5 -15 -2 -10 10 3 9 2 19 -3 22 -16 10 -12 65 4 65 7 0 19 6 25 13 13 16
76 20 102 7 14 -8 23 -5 41 12 34 33 60 78 55 93 -3 7 -1 17 5 23 7 7 4 20
-11 40 -11 17 -21 35 -21 41 0 6 -4 11 -10 11 -5 0 -10 7 -10 16 0 8 -4 13 -9
10 -4 -3 -26 3 -47 13 -22 10 -54 17 -72 16 -59 -5 -102 -16 -102 -25 0 -6 -7
-10 -15 -10 -8 0 -17 -11 -21 -24 -3 -14 -12 -27 -21 -30 -8 -3 -13 -14 -12
-23 3 -39 -2 -63 -13 -60 -17 3 -12 -94 4 -104 7 -4 12 -24 11 -43 -1 -20 3
-39 8 -42 5 -3 9 -14 9 -25 0 -10 5 -19 10 -19 6 0 10 -5 10 -10 0 -16 55 -67
68 -62 7 2 12 -2 12 -10 0 -16 40 -43 59 -39 7 1 20 -1 30 -5 9 -4 34 -8 56
-8 22 -1 46 -5 52 -9 7 -4 21 -3 32 3 11 5 26 8 33 6 7 -2 27 -7 43 -10 23 -5
27 -4 15 5 -12 8 -8 9 18 5 19 -3 32 -1 32 5 0 6 9 8 20 4 14 -4 22 -1 26 10
5 12 9 13 14 4 6 -9 15 -7 34 9 15 11 40 24 56 27 17 4 30 11 30 15 0 5 8 7
18 3 9 -3 14 -3 11 1 -4 4 8 21 25 39 77 80 91 104 96 168 3 33 3 63 1 65 -8
7 -8 59 0 64 8 6 -5 96 -23 153 -8 26 -16 36 -25 32 -11 -3 -13 1 -8 15 4 13
1 22 -9 26 -9 3 -14 10 -11 15 3 4 -4 13 -15 19 -11 6 -20 17 -20 25 0 17 -56
58 -69 51 -4 -3 -17 4 -27 15 -10 11 -24 17 -32 14 -16 -6 -54 12 -65 31 -4 8
-19 14 -32 14 -13 0 -26 4 -29 9 -9 13 -87 19 -118 8 -23 -7 -31 -5 -53 19
-14 15 -25 30 -25 33 0 11 15 26 30 29 8 2 35 19 61 38 26 19 52 33 57 32 6
-2 10 1 10 5 1 13 48 47 70 50 11 2 27 9 36 16 9 8 19 11 23 7 3 -3 15 1 25
11 10 9 18 13 18 8 0 -4 7 -2 14 5 19 15 127 20 144 7 9 -7 16 -7 24 1 7 7 22
12 33 12 15 0 25 10 35 34 7 19 22 37 33 40 14 3 18 11 15 24 -4 12 4 31 18
48 16 18 22 34 18 47 -5 16 -3 19 10 14 15 -6 21 7 17 41 -1 6 3 12 9 12 6 0
9 4 6 9 -3 5 4 11 15 14 16 4 19 11 14 26 -5 17 -2 21 14 21 12 0 21 8 23 21
2 12 11 27 22 33 10 6 30 21 43 33 21 19 24 26 15 50 -8 25 -14 28 -48 27 -21
-1 -40 -7 -42 -13 -2 -6 -15 -11 -28 -11 -13 0 -24 -3 -24 -8 0 -4 -18 -15
-40 -25 -22 -9 -40 -23 -40 -31 0 -8 -11 -17 -25 -20 -15 -4 -22 -11 -19 -20
3 -8 -4 -16 -20 -20 -14 -3 -30 -15 -36 -26 -6 -11 -16 -20 -23 -20 -7 0 -27
-15 -44 -34 -18 -18 -45 -36 -61 -39 -16 -3 -47 -24 -69 -46 -22 -23 -47 -41
-55 -41 -8 0 -25 -11 -38 -25 -13 -14 -27 -25 -32 -25 -13 0 -71 -42 -86 -63
-8 -10 -20 -16 -28 -13 -8 3 -14 2 -14 -2 0 -4 -10 -12 -22 -17 -14 -6 -22
-17 -20 -28 2 -9 -2 -17 -8 -17 -6 0 -8 5 -5 10 11 18 -14 11 -35 -10 -11 -11
-22 -20 -25 -20 -13 1 -65 -32 -73 -46 -5 -8 -16 -16 -25 -18 -8 -1 -30 -14
-47 -28 -18 -15 -39 -24 -47 -21 -9 4 -16 -2 -20 -16 -3 -11 -9 -19 -13 -16
-4 2 -18 -4 -31 -16 -12 -11 -28 -18 -35 -15 -7 3 -18 -2 -24 -10 -7 -8 -21
-14 -31 -14 -11 0 -19 -4 -19 -10 0 -23 -41 -9 -53 18 -6 15 -20 33 -29 40
-25 18 -24 77 2 99 15 13 17 20 8 31 -9 10 -9 15 1 22 8 4 11 12 7 18 -7 12
47 69 62 64 7 -2 12 1 12 7 0 6 5 11 11 11 6 0 25 12 43 27 17 14 46 32 65 40
18 8 36 23 38 34 4 12 11 18 20 15 16 -7 83 43 83 61 0 7 6 10 14 7 8 -3 17
-1 21 5 3 6 15 11 26 11 11 0 22 7 25 15 4 8 14 15 23 15 9 0 27 12 40 25 13
14 27 25 32 25 6 0 21 7 35 17 19 12 22 18 12 24 -13 9 -11 9 35 13 6 1 27 15
45 33 19 17 47 35 63 38 26 6 28 9 17 23 -11 13 -10 15 5 9 11 -4 24 0 36 12
11 11 35 25 55 32 23 8 35 19 33 28 -1 11 6 16 24 16 27 1 70 37 83 70 5 14 9
16 15 7 6 -10 11 -9 21 3 7 9 19 14 27 11 7 -3 23 8 35 24 12 17 30 30 39 30
10 0 26 11 37 25 11 13 22 22 26 18 3 -3 18 7 33 23 15 16 30 28 35 27 4 -2
22 6 40 17 18 11 43 24 56 30 12 5 22 14 22 20 0 5 11 12 25 16 14 3 25 12 25
20 0 8 10 14 22 14 12 0 18 3 14 7 -3 4 8 12 26 18 18 6 32 16 31 23 -2 7 3
12 11 12 7 0 16 9 19 20 3 11 13 20 24 20 15 0 16 2 3 10 -13 8 -12 10 3 10 9
0 17 6 17 14 0 8 5 16 11 18 6 2 12 16 12 31 0 15 3 24 8 22 9 -6 31 29 23 37
-2 3 -7 29 -9 59 -6 58 -11 94 -14 94 -1 0 -4 14 -6 30 -8 66 -16 95 -26 95
-6 0 -8 9 -4 20 4 11 -2 30 -13 47 -11 15 -27 41 -36 56 -13 21 -22 26 -38 21
-14 -4 -18 -2 -14 5 8 12 -16 41 -33 41 -6 0 -11 5 -11 10 0 6 -11 10 -25 10
-14 0 -25 4 -25 9 0 14 -56 39 -70 31 -9 -6 -115 -6 -115 0 0 0 -19 2 -42 4
-24 1 -43 -2 -43 -7 0 -5 -9 -7 -20 -4 -29 7 -90 -14 -90 -31 0 -11 -3 -12
-13 -4 -10 9 -23 1 -55 -33 -23 -25 -49 -45 -57 -45 -9 0 -15 -10 -15 -25 0
-14 -7 -28 -15 -32 -11 -4 -15 -18 -14 -47 1 -22 -1 -49 -5 -58 -5 -12 -4 -18
4 -18 7 0 9 -8 5 -21 -13 -40 34 -119 71 -119 10 0 14 -5 11 -14 -7 -17 28
-50 43 -41 6 4 27 -3 47 -15 33 -19 37 -20 53 -5 14 13 19 13 22 3 4 -10 15
-7 49 10 41 22 101 82 82 82 -5 0 -8 29 -6 65 2 55 -1 68 -20 88 -12 13 -30
26 -40 30 -10 4 -15 11 -12 17 3 5 1 10 -4 10 -14 0 -14 57 0 65 20 13 139 17
139 6 0 -6 9 -11 19 -11 11 0 22 -4 26 -9 3 -5 19 -12 35 -16 17 -4 30 -11 30
-17 0 -5 16 -28 35 -50 19 -23 32 -45 29 -50 -3 -4 1 -11 10 -14 8 -3 12 -12
9 -20 -3 -8 -1 -20 5 -27 9 -11 9 -45 -1 -112 -9 -60 -19 -83 -48 -104 -16
-12 -29 -28 -29 -36 0 -8 -8 -15 -18 -15 -10 0 -29 -11 -42 -25 -12 -13 -28
-23 -34 -22 -6 1 -10 -3 -9 -10 3 -12 -66 -37 -75 -28 -3 2 -14 -1 -26 -7 -11
-7 -25 -12 -29 -13 -4 0 -12 -7 -17 -15 -8 -13 -10 -12 -10 4 0 17 -1 17 -25
2 -34 -22 -164 -29 -183 -9 -8 8 -22 11 -32 8 -10 -3 -20 0 -23 8 -3 8 -16 14
-29 13 -13 -1 -28 4 -35 10 -6 6 -25 10 -42 9 -17 -1 -31 2 -31 6 0 5 -12 12
-27 15 -16 4 -39 13 -53 20 -14 7 -32 15 -40 18 -8 4 -31 16 -50 27 -19 12
-42 22 -50 24 -8 1 -15 9 -15 18 0 19 -8 28 -30 31 -9 1 -20 7 -23 12 -4 6
-21 19 -39 29 -18 10 -29 23 -26 28 3 4 -4 11 -15 14 -13 3 -18 11 -15 19 3 8
-1 14 -11 14 -9 0 -16 5 -16 10 0 6 -11 22 -25 36 -14 14 -32 40 -39 59 -8 18
-24 39 -37 45 -15 9 -18 14 -10 20 9 5 6 15 -12 34 -13 14 -28 45 -32 69 -14
74 -15 80 -25 92 -12 14 -21 65 -11 65 4 0 13 16 21 35 8 19 17 35 21 35 3 0
12 15 20 33 7 17 15 34 18 37 15 13 31 52 26 60 -4 6 3 10 14 10 12 0 21 7 21
15 0 8 11 25 25 37 14 12 25 28 25 35 0 7 7 13 16 13 11 0 13 6 9 19 -4 13 2
30 17 47 21 25 125 139 171 186 9 10 17 23 17 28 0 6 5 10 11 10 5 0 8 4 5 9
-3 5 1 11 9 15 8 3 15 13 15 22 0 9 8 22 17 29 9 7 18 23 20 36 2 13 8 26 15
30 6 4 7 12 4 18 -4 6 -2 11 3 11 6 0 11 11 11 24 0 14 4 27 8 30 10 6 9 92 0
102 -4 4 2 18 12 32 22 27 25 53 9 69 -14 14 -20 95 -7 110 7 9 7 13 -1 13 -6
0 -11 6 -11 14 0 7 -6 19 -13 25 -14 11 -16 69 -2 90 4 7 -2 22 -14 35 -12 12
-21 34 -21 48 0 14 -7 31 -15 38 -9 7 -13 21 -10 31 4 11 -1 21 -12 28 -10 6
-15 11 -10 11 4 0 0 11 -9 25 -9 14 -14 28 -11 32 8 7 -24 63 -36 63 -5 0 -6
9 -2 20 4 13 -1 27 -14 42 -12 12 -21 28 -21 35 0 7 -4 13 -9 13 -5 0 -11 8
-15 18 -7 21 -25 49 -48 76 -10 11 -18 23 -18 28 0 10 -27 43 -60 76 -14 13
-25 27 -25 30 -1 15 -109 132 -123 132 -4 0 -13 13 -20 30 -7 16 -22 32 -33
35 -19 6 -28 13 -91 69 -15 14 -37 27 -48 31 -11 3 -20 10 -20 15 0 9 -31 17
-95 25 -16 2 -32 5 -35 6 -3 1 -26 2 -52 3 -34 1 -50 -3 -54 -14z m-314 -3130
c0 -12 62 -9 72 4 4 6 13 4 22 -3 9 -7 23 -10 32 -7 27 10 55 -33 49 -76 -4
-31 -2 -36 12 -31 13 5 13 3 -2 -20 -9 -15 -13 -27 -9 -27 5 0 10 -14 11 -30
1 -17 -2 -30 -7 -30 -6 0 -6 -9 0 -24 5 -13 6 -27 3 -30 -8 -7 -5 -94 3 -120
4 -12 2 -16 -5 -11 -8 4 -10 -2 -6 -22 13 -57 14 -106 6 -144 -5 -22 -5 -41
-1 -44 9 -5 5 -72 -6 -107 -3 -10 -2 -23 1 -29 10 -15 14 -118 6 -124 -9 -5
-8 -36 3 -53 4 -6 4 -18 -1 -24 -4 -7 -9 -21 -10 -31 -2 -10 -14 -29 -27 -42
-14 -13 -27 -34 -31 -45 -3 -11 -13 -20 -20 -20 -8 0 -29 -8 -47 -18 -18 -10
-38 -17 -45 -15 -6 2 -14 -1 -18 -7 -9 -15 -65 37 -59 54 3 7 0 26 -7 42 -6
16 -13 41 -15 56 -3 22 0 26 12 21 13 -5 15 -2 9 16 -13 43 -18 76 -19 148 0
40 -6 77 -11 82 -7 7 -8 48 -3 116 4 64 3 116 -3 132 -6 17 -6 30 1 38 5 6 7
14 4 18 -10 10 -13 110 -5 149 5 20 6 40 3 43 -14 13 -9 126 5 141 12 12 12
18 3 29 -10 12 -10 15 3 15 8 0 20 7 27 15 7 9 19 14 26 11 7 -3 16 -1 19 4 8
13 25 13 25 0z m406 -36 c-3 -8 1 -14 8 -14 8 0 16 -9 19 -21 3 -12 10 -18 15
-15 9 6 8 -58 -3 -101 -3 -12 -1 -24 5 -28 5 -3 7 -12 4 -19 -3 -8 -1 -17 5
-20 6 -4 4 -16 -5 -34 -10 -19 -12 -43 -8 -82 4 -30 6 -62 5 -70 -6 -61 -5
-118 1 -137 4 -12 3 -25 -3 -28 -5 -4 -7 -11 -3 -16 5 -9 6 -87 1 -161 -1 -10
-7 -18 -14 -18 -12 0 -17 -13 -14 -32 0 -5 -8 -8 -19 -8 -11 0 -20 -4 -20 -10
0 -5 -9 -10 -19 -10 -11 0 -22 -4 -25 -9 -7 -11 -66 16 -66 30 0 6 4 8 9 5 5
-3 7 9 5 27 -1 17 -3 32 -4 32 -7 0 -5 102 2 112 5 7 5 14 -1 17 -5 3 -10 48
-10 100 -1 52 -4 101 -7 110 -3 9 -1 16 6 16 6 0 8 5 4 11 -3 6 -7 49 -8 95
-1 66 2 84 13 84 9 0 10 4 4 13 -11 14 -11 122 0 133 4 4 7 15 7 25 0 11 12
20 38 26 56 14 84 13 78 -3z m259 -159 c14 -14 25 -30 25 -35 0 -6 6 -10 13
-10 6 0 23 -16 36 -35 13 -19 30 -35 38 -35 11 0 14 -7 11 -25 -4 -17 -1 -25
8 -25 8 0 14 -7 14 -15 0 -8 4 -15 9 -15 17 0 35 -103 25 -142 -3 -10 -19 -20
-40 -24 -34 -6 -57 -24 -32 -24 7 0 -12 -11 -42 -23 -38 -16 -55 -28 -54 -40
1 -12 -6 -17 -21 -17 -36 0 -75 18 -75 34 0 9 -6 14 -12 12 -7 -1 -10 -1 -5 1
9 6 9 47 0 56 -11 12 -13 66 -3 72 6 4 7 12 3 18 -10 17 -10 98 0 104 5 3 4 9
-2 13 -8 4 -9 15 -3 31 6 16 5 30 -3 44 -11 17 -13 37 -6 78 0 5 6 5 11 2 6
-4 16 -2 23 3 7 5 21 12 32 15 11 2 21 5 22 6 1 0 14 -10 28 -24z m-1529 -272
c11 -26 12 -123 1 -123 -5 0 -6 -19 -2 -47 10 -66 17 -125 16 -143 -6 -86 -5
-137 2 -147 5 -6 4 -20 -2 -31 -6 -11 -8 -22 -5 -25 3 -3 7 -64 8 -136 1 -72
5 -133 8 -137 4 -3 3 -16 -1 -28 -9 -22 -8 -50 2 -76 15 -41 24 -135 13 -142
-8 -6 -8 -13 2 -28 14 -23 15 -59 2 -80 -6 -10 -4 -20 7 -32 11 -13 12 -18 3
-18 -6 0 -10 -6 -7 -14 3 -8 3 -17 0 -20 -5 -5 -8 -152 -3 -158 6 -9 6 -298 0
-319 -4 -14 -3 -33 2 -43 6 -11 6 -21 -1 -30 -6 -7 -7 -16 -3 -20 11 -11 8
-140 -3 -148 -7 -5 -6 -11 1 -15 7 -5 9 -40 7 -93 -4 -104 -4 -105 0 -155 2
-22 -1 -46 -6 -52 -6 -9 -5 -18 2 -27 7 -8 9 -25 5 -40 -3 -14 -7 -40 -8 -59
-1 -18 -6 -39 -10 -45 -4 -7 -4 -21 -1 -32 4 -11 2 -20 -4 -20 -6 0 -11 -8
-11 -18 0 -10 -3 -22 -7 -26 -4 -4 -6 -27 -4 -51 2 -30 -2 -45 -9 -45 -7 0
-10 -8 -7 -20 3 -11 1 -20 -4 -20 -5 0 -18 -18 -29 -40 -14 -27 -29 -42 -48
-46 -15 -4 -33 -11 -39 -16 -15 -12 -47 -2 -38 12 3 5 -3 10 -15 10 -12 0 -18
5 -15 10 3 6 -2 13 -12 17 -10 3 -26 14 -36 25 -10 10 -29 18 -42 18 -14 0
-25 4 -25 9 0 13 -81 101 -93 101 -10 0 -42 34 -85 90 -15 19 -36 44 -48 55
-11 12 -27 35 -35 53 -8 20 -21 32 -33 32 -16 0 -16 2 -6 16 11 13 10 16 -8
20 -11 4 -18 12 -16 19 3 6 -6 20 -20 29 -15 9 -26 22 -26 30 0 7 -11 22 -25
32 -14 10 -25 28 -25 40 0 12 -7 27 -15 34 -8 7 -13 15 -10 19 2 4 -10 24 -26
44 -17 20 -27 37 -24 37 4 0 2 6 -4 14 -7 8 -13 41 -14 75 -1 44 -6 61 -16 61
-10 0 -11 3 -2 14 9 10 8 15 -3 19 -8 3 -24 26 -35 50 -15 33 -18 52 -12 79 9
37 6 145 -4 208 -3 19 -7 52 -8 73 -1 23 -6 37 -15 37 -8 0 -10 5 -6 12 4 7 9
21 10 32 2 12 6 45 10 74 3 28 10 52 15 52 4 0 7 8 6 18 0 10 7 35 17 55 9 21
14 41 11 47 -3 5 2 26 11 47 9 21 16 44 15 51 -1 6 5 12 14 12 12 0 14 4 6 19
-8 15 -5 24 14 45 14 15 25 34 25 42 0 7 5 14 10 14 6 0 10 11 10 24 0 14 4
27 10 31 5 3 6 13 3 22 -4 9 1 21 12 29 10 8 16 14 12 14 -4 0 3 17 16 38 13
20 27 47 31 58 4 12 17 33 29 46 19 22 31 25 87 26 40 1 67 -4 72 -11 6 -9 11
-8 21 4 17 22 83 42 113 35 24 -6 25 -10 23 -79 -1 -91 -7 -117 -26 -117 -8 0
-17 -9 -20 -20 -3 -11 -10 -20 -15 -20 -5 0 -7 -9 -3 -20 5 -14 2 -18 -7 -15
-8 3 -24 -8 -38 -27 -13 -18 -30 -37 -37 -41 -7 -5 -11 -12 -8 -18 4 -5 0 -9
-7 -9 -14 0 -20 -6 -77 -77 -19 -23 -37 -40 -42 -37 -4 2 -13 -5 -19 -16 -6
-11 -16 -20 -23 -20 -7 0 -20 -8 -28 -18 -9 -11 -27 -26 -39 -35 -22 -15 -22
-19 -10 -42 7 -14 19 -25 27 -25 7 0 12 -3 10 -7 -1 -5 3 -10 8 -12 6 -2 16
-12 22 -21 7 -10 24 -21 38 -24 14 -4 23 -10 21 -15 -3 -5 1 -14 9 -21 8 -7
15 -9 15 -4 0 16 29 -31 30 -48 0 -10 9 -22 20 -28 11 -6 20 -20 20 -31 0 -11
7 -31 16 -44 11 -18 13 -25 4 -25 -7 0 -10 -7 -6 -16 4 -10 -1 -25 -10 -35 -9
-10 -13 -23 -9 -28 3 -6 -1 -11 -10 -11 -9 0 -15 -6 -12 -12 2 -7 -2 -20 -10
-30 -8 -9 -15 -22 -17 -30 -1 -7 -10 -25 -20 -40 -9 -15 -16 -35 -14 -45 1
-10 -1 -23 -4 -29 -7 -10 -13 -144 -8 -169 1 -5 1 -34 0 -62 -1 -29 2 -53 7
-53 5 0 14 -14 21 -32 9 -25 9 -34 -1 -40 -8 -6 -6 -10 10 -14 11 -3 24 -13
27 -22 9 -27 64 -97 73 -95 4 1 18 -4 29 -12 12 -8 31 -11 43 -8 14 3 21 1 21
-8 0 -18 63 -17 84 0 8 7 20 10 26 6 5 -3 13 1 16 9 3 9 12 16 20 16 8 0 14 4
14 8 0 4 14 13 31 19 25 10 29 16 24 34 -5 15 -4 19 4 15 6 -4 13 -1 15 6 2 7
10 34 17 61 7 26 18 47 23 47 5 0 0 9 -13 21 -13 12 -20 27 -16 38 7 24 -13
45 -60 64 -35 13 -45 13 -74 1 -18 -8 -36 -12 -41 -9 -13 8 -53 -43 -47 -59 4
-9 2 -16 -4 -16 -6 0 -9 -8 -8 -17 3 -38 -2 -53 -29 -81 -27 -27 -30 -28 -48
-13 -10 9 -18 25 -16 37 2 11 -3 32 -11 47 -11 20 -12 39 -6 72 5 25 6 52 3
60 -5 11 -2 13 11 9 14 -6 16 -3 10 14 -4 13 -2 22 4 22 7 0 7 8 1 26 -13 32
-15 25 20 69 21 26 28 45 24 58 -4 12 -1 23 7 28 8 4 14 12 14 16 0 13 47 76
78 104 16 15 27 33 25 42 -3 17 69 87 90 87 6 0 12 9 12 21 0 11 5 19 12 17
14 -5 51 32 84 83 l24 39 -32 34 c-48 48 -102 116 -110 138 -4 10 -14 18 -23
18 -13 0 -20 19 -16 43 1 5 -8 11 -19 14 -15 4 -19 11 -15 24 5 15 2 18 -12
13 -17 -5 -17 -5 0 6 13 8 16 20 12 49 -4 33 -1 40 20 49 16 8 25 20 25 35 0
12 7 32 15 44 12 17 14 43 11 120 -5 122 -4 115 -15 109 -5 -3 -14 1 -21 9 -7
8 -9 15 -4 15 5 0 2 6 -7 13 -8 7 -18 20 -22 30 -3 9 -16 17 -27 17 -11 0 -20
5 -20 10 0 6 -11 10 -25 10 -14 0 -25 5 -25 10 0 6 -9 10 -19 10 -26 0 -76 46
-61 55 6 4 8 15 5 26 -4 12 -1 21 9 25 9 3 16 11 16 18 0 6 14 20 30 31 16 11
30 24 30 28 0 12 122 127 135 127 6 0 37 25 70 55 32 30 67 55 78 55 13 0 17
5 13 15 -8 23 49 20 60 -2z m1309 -563 c0 -8 4 -18 9 -21 4 -4 10 -31 12 -60
6 -81 12 -128 18 -137 9 -15 15 -65 9 -75 -7 -12 -9 -75 -1 -82 5 -5 2 -67 -6
-127 -3 -21 -1 -38 4 -38 12 0 7 -93 -5 -102 -7 -5 -7 -11 0 -15 14 -11 16
-65 3 -81 -7 -8 -8 -16 -2 -22 6 -6 7 -37 4 -70 -3 -32 -2 -69 2 -80 4 -11 4
-20 -1 -20 -9 0 -8 -66 1 -76 4 -3 3 -16 -2 -29 -6 -15 -4 -27 3 -35 8 -8 8
-14 2 -16 -12 -5 -7 -82 6 -90 5 -3 2 -12 -6 -21 -11 -10 -13 -19 -6 -27 7 -8
7 -32 2 -67 -5 -30 -6 -55 -2 -57 4 -1 4 -30 0 -65 -3 -34 -3 -66 0 -72 10
-17 8 -209 -2 -222 -6 -9 -6 -18 2 -26 6 -8 8 -17 4 -20 -3 -4 0 -13 7 -22 10
-12 9 -15 -5 -15 -14 0 -15 -3 -6 -14 8 -9 8 -22 2 -39 -5 -13 -8 -55 -6 -93
2 -37 0 -73 -6 -80 -6 -7 -6 -15 -1 -18 10 -6 9 -163 -1 -173 -4 -3 -4 -10 0
-16 3 -6 7 -42 8 -82 1 -39 5 -76 9 -83 4 -7 3 -12 -2 -12 -6 0 -12 -23 -14
-50 -1 -28 1 -50 6 -50 5 0 4 -6 -2 -12 -10 -13 -7 -111 3 -128 9 -15 -46 -32
-83 -26 -18 2 -39 12 -48 20 -18 19 -26 108 -13 144 7 18 6 28 -3 34 -7 4 -9
8 -3 8 5 0 4 5 -3 12 -17 17 -15 28 4 21 12 -4 14 0 10 18 -6 23 -17 158 -18
207 0 12 -4 22 -10 22 -5 0 -7 8 -4 18 3 9 2 40 -3 69 -4 29 -4 56 1 61 4 4 3
23 -3 41 -9 26 -9 35 1 41 7 4 8 10 2 14 -5 3 -7 17 -4 31 2 14 -1 32 -8 39
-9 11 -9 20 1 38 15 27 19 57 9 63 -4 2 -6 35 -5 72 1 37 -2 71 -8 74 -6 4 -6
38 1 90 5 46 6 89 2 94 -4 6 -6 53 -3 105 2 52 4 132 4 178 1 45 5 82 10 82 5
0 4 12 -1 26 -7 18 -7 31 0 39 6 7 7 16 3 18 -9 6 -8 170 1 193 3 7 2 15 -2
18 -9 5 -6 141 2 155 4 5 2 12 -3 15 -5 3 -8 49 -7 101 2 53 0 98 -4 100 -8 5
-24 65 -21 78 7 34 5 127 -2 130 -5 1 -3 15 4 29 10 22 9 31 -2 44 -11 13 -11
18 -1 21 6 3 12 12 12 20 0 17 50 70 85 90 27 16 70 12 70 -7z m-281 -202 c18
-41 26 -97 14 -104 -5 -3 -5 -11 1 -18 11 -13 9 -50 -4 -81 -10 -21 -55 -64
-69 -65 -18 0 -82 -67 -78 -81 3 -10 1 -11 -5 -2 -7 10 -16 10 -41 1 -41 -16
-49 -7 -55 60 -3 29 -10 59 -17 67 -9 10 -9 15 -1 15 6 0 11 12 11 28 0 15 7
37 15 49 8 12 12 29 8 39 -5 13 -3 16 10 11 12 -4 17 -1 17 10 0 9 2 14 5 11
3 -3 20 8 36 23 17 16 37 29 45 29 7 0 28 9 46 20 43 26 45 26 62 -12z m-19
-398 c-3 -5 -2 -10 2 -10 14 0 35 -64 22 -69 -6 -2 -4 -10 6 -21 9 -10 13 -20
8 -23 -13 -8 -8 -176 5 -189 14 -14 16 -32 4 -24 -5 3 -8 -12 -6 -32 1 -20 3
-37 3 -37 6 0 6 -205 0 -221 -4 -12 -3 -26 3 -32 7 -7 8 -23 1 -50 -6 -22 -7
-46 -2 -54 10 -17 1 -58 -13 -58 -5 0 -6 -5 -3 -11 11 -17 -26 -49 -55 -49
-39 0 -100 28 -100 45 0 8 -6 15 -14 15 -8 0 -18 5 -22 12 -4 7 -3 8 4 4 7 -4
12 -2 12 3 0 6 -4 11 -9 11 -17 0 -42 62 -31 75 7 8 4 18 -11 31 -13 12 -19
27 -16 41 2 13 0 26 -5 29 -6 4 -7 25 -3 50 4 31 3 44 -6 44 -8 0 -9 11 -4 38
10 48 10 81 1 111 -6 18 -5 22 5 16 9 -6 10 -3 5 11 -11 27 -14 164 -4 170 4
3 8 13 8 23 0 25 57 85 98 102 17 8 32 19 32 26 0 7 6 10 13 7 8 -3 20 2 27
11 14 16 55 21 45 5z m6 -1033 c27 -18 33 -29 35 -61 0 -24 -4 -40 -13 -43 -8
-3 -12 -12 -9 -19 3 -8 -1 -14 -10 -14 -18 0 -44 -23 -44 -39 0 -6 -9 -11 -19
-11 -11 0 -26 -6 -33 -13 -7 -8 -19 -12 -27 -9 -10 3 -12 0 -8 -11 4 -11 -2
-17 -24 -22 -16 -4 -29 -13 -29 -21 0 -7 -11 -16 -25 -20 -14 -3 -25 -10 -25
-15 0 -5 -9 -9 -20 -9 -11 0 -20 -7 -20 -15 0 -9 -6 -12 -16 -8 -10 3 -17 -1
-20 -14 -3 -10 -15 -23 -27 -28 -12 -6 -22 -17 -22 -25 0 -8 -9 -20 -20 -25
-11 -6 -20 -20 -20 -30 -1 -37 -17 -85 -28 -85 -8 0 -8 -3 1 -12 8 -8 8 -17 1
-31 -10 -18 -5 -80 9 -102 4 -5 7 -13 7 -16 0 -15 51 -79 63 -79 7 0 12 -8 10
-17 -2 -11 5 -19 17 -21 11 -2 29 -7 40 -12 36 -15 60 -23 66 -22 44 8 60 13
93 27 40 17 86 57 86 74 0 6 17 9 38 8 l37 -2 1 -118 c1 -65 4 -120 8 -124 3
-3 -10 -17 -30 -31 -28 -19 -41 -22 -58 -15 -23 10 -72 10 -82 0 -6 -6 -14 -5
-49 8 -11 4 -36 9 -55 11 -19 2 -46 7 -60 11 -14 3 -34 8 -44 10 -11 2 -24 8
-30 13 -7 5 -36 12 -66 16 -30 4 -60 13 -68 20 -7 7 -26 11 -42 9 -17 -2 -30
0 -30 5 0 4 -10 6 -22 2 -14 -3 -19 -2 -14 6 5 8 -1 12 -16 12 -14 0 -33 6
-43 14 -11 8 -25 12 -32 9 -15 -6 -123 45 -123 58 0 5 -7 9 -15 9 -8 0 -15 5
-15 11 0 6 -7 8 -16 5 -8 -3 -12 -2 -9 4 3 6 -6 15 -22 20 -53 19 -73 33 -73
51 0 14 -20 30 -42 33 -12 2 -22 16 -10 16 6 0 10 13 10 28 -1 29 28 72 48 72
6 0 19 11 28 25 9 14 23 25 31 25 8 0 15 9 15 20 0 11 7 20 15 20 8 0 15 5 15
10 0 6 8 13 18 17 26 9 62 45 62 61 0 8 6 12 15 8 8 -3 19 3 25 13 5 10 21 22
35 25 14 4 25 11 25 16 0 6 12 15 26 20 14 6 23 14 20 19 -7 11 64 53 121 71
24 7 50 21 59 32 10 10 25 18 35 18 9 0 27 12 39 28 12 15 19 21 15 15 -10
-20 4 -15 44 15 34 27 87 55 104 56 5 1 14 9 21 19 7 9 24 17 37 17 14 0 35 7
47 16 13 9 29 13 37 10 9 -3 15 1 15 9 0 21 11 19 51 -8z m643 -16 c3 -4 30
-8 61 -7 30 1 56 -2 58 -7 1 -5 14 -10 29 -10 16 -1 24 -7 21 -14 -3 -8 4 -13
20 -13 14 0 29 -5 32 -10 4 -6 10 -8 15 -5 14 9 52 -14 44 -27 -4 -6 0 -8 12
-4 14 4 31 -6 60 -32 22 -21 48 -41 57 -45 9 -3 17 -13 17 -20 0 -8 13 -28 29
-45 33 -34 71 -110 71 -141 0 -12 4 -21 8 -21 8 0 9 -7 16 -82 2 -25 6 -51 10
-56 3 -5 -1 -15 -9 -22 -8 -7 -15 -20 -15 -29 -1 -20 -23 -51 -38 -51 -6 0
-13 -18 -17 -40 -4 -25 -12 -40 -21 -40 -8 0 -14 -7 -14 -15 0 -9 -8 -19 -17
-22 -10 -4 -31 -20 -47 -36 -19 -20 -31 -26 -36 -18 -4 8 -21 -4 -48 -33 -35
-38 -72 -67 -92 -71 -38 -10 -90 -47 -90 -66 0 -11 -2 -11 -8 -1 -7 10 -15 10
-36 2 -15 -5 -32 -8 -36 -5 -5 3 -18 1 -30 -5 -11 -5 -29 -14 -40 -20 -22 -11
-112 -2 -104 11 3 5 -1 9 -9 9 -9 0 -19 19 -27 48 -6 26 -13 52 -15 58 -2 6 2
22 8 35 14 28 15 49 3 67 -4 7 -5 16 -2 19 3 3 1 12 -4 18 -6 7 -12 50 -15 96
-2 46 -5 84 -6 84 0 0 -3 26 -4 58 -2 31 0 57 4 57 3 0 7 9 7 20 0 11 -4 20
-8 20 -10 0 -6 39 5 57 4 6 4 14 0 16 -9 6 -9 58 -1 73 3 5 2 18 -2 29 -4 11
-4 30 1 43 5 13 5 22 -1 22 -14 0 -12 21 6 55 9 18 11 31 5 33 -14 5 10 42 26
42 7 0 13 5 13 10 0 6 7 10 15 10 8 0 15 5 15 11 0 6 8 8 18 5 9 -3 24 -1 32
4 19 12 67 13 74 1z m-631 -321 c10 0 21 -8 24 -17 4 -10 13 -24 20 -31 7 -8
11 -17 8 -22 -3 -4 -5 -30 -6 -56 -1 -76 -8 -101 -30 -107 -10 -3 -21 -2 -24
3 -3 4 -17 11 -31 14 -15 4 -33 14 -41 22 -12 11 -18 12 -29 3 -8 -6 -25 -8
-39 -5 -18 5 -25 2 -25 -8 0 -10 -6 -13 -15 -10 -9 4 -15 0 -15 -9 0 -9 -3
-24 -6 -34 -5 -15 -4 -16 6 -3 9 12 11 10 6 -12 -4 -16 -1 -28 7 -31 6 -3 3
-6 -7 -6 -16 -1 -17 -4 -8 -13 15 -15 16 -48 1 -48 -5 0 -7 -5 -4 -11 4 -6 -2
-13 -14 -16 -12 -3 -21 -9 -21 -14 0 -14 -49 17 -75 47 -14 16 -20 31 -15 32
6 2 10 21 10 43 0 28 4 39 15 39 9 0 15 9 15 22 0 25 28 63 102 138 62 63 124
101 153 94 11 -2 28 -4 38 -4z m-1813 -780 c-20 -13 -33 -13 -25 0 3 6 14 10
23 10 15 0 15 -2 2 -10z m1800 -1812 c0 -5 6 -8 13 -8 7 0 27 -13 45 -30 18
-16 39 -30 46 -30 6 0 30 -9 51 -20 22 -11 50 -21 62 -22 12 -1 20 -4 18 -7
-3 -2 11 -21 30 -43 19 -21 35 -46 35 -56 0 -10 19 -36 43 -58 24 -22 46 -48
50 -57 3 -9 14 -17 23 -17 10 0 14 -5 10 -15 -3 -8 1 -32 9 -54 12 -35 12 -82
0 -118 -2 -6 -1 -14 2 -17 6 -5 12 -38 15 -73 1 -7 8 -13 17 -13 13 -1 12 -4
-5 -18 -31 -27 -55 -67 -49 -84 4 -9 -3 -23 -17 -34 -13 -11 -24 -32 -25 -49
-4 -48 -13 -76 -23 -70 -6 3 -10 1 -10 -4 0 -6 -7 -11 -15 -11 -8 0 -15 -4
-15 -9 0 -5 -10 -11 -22 -13 -13 -2 -22 -9 -21 -16 2 -6 -8 -14 -21 -18 -13
-3 -26 -14 -29 -25 -4 -14 -14 -19 -40 -19 -20 0 -37 5 -39 10 -2 6 -23 4 -58
-5 -60 -17 -140 -24 -140 -12 0 4 -7 7 -16 7 -8 0 -36 16 -61 35 -34 26 -52
33 -69 29 -15 -4 -24 -2 -24 6 0 7 -7 10 -16 6 -10 -4 -22 1 -29 11 -11 15
-15 15 -29 4 -12 -10 -16 -11 -16 -1 0 7 -12 23 -26 36 -14 13 -23 28 -19 33
3 5 1 12 -5 16 -5 3 -10 17 -10 31 0 13 -4 24 -9 24 -5 0 -19 16 -30 36 -12
20 -30 38 -41 41 -11 3 -20 11 -20 18 0 7 -6 18 -14 24 -11 9 -14 36 -13 106
0 51 -4 99 -9 107 -11 14 -12 64 -1 74 4 4 4 17 1 29 -3 14 3 29 19 46 13 13
32 41 42 62 15 33 16 40 4 48 -8 5 -9 9 -2 9 6 0 16 14 22 30 5 17 17 30 25
30 9 0 16 5 16 10 0 6 9 10 19 10 11 0 23 5 26 11 4 5 18 14 32 20 14 5 21 14
17 21 -4 6 -3 8 4 4 6 -3 14 -2 17 4 4 6 16 8 26 5 11 -4 26 -2 33 4 7 6 24
10 37 9 15 -2 23 2 22 10 -3 14 -1 15 30 3 17 -7 30 -6 41 2 18 13 86 17 86 5z"/>
<path d="M7472 3830 c-19 -4 -38 -12 -44 -18 -6 -6 -17 -8 -24 -5 -10 4 -12 0
-8 -12 6 -15 4 -16 -13 -6 -18 9 -24 7 -37 -14 -9 -14 -25 -25 -36 -25 -11 0
-20 -4 -20 -9 0 -5 -13 -11 -29 -14 -18 -4 -32 -14 -36 -27 -3 -11 -13 -20
-21 -20 -8 0 -24 -10 -36 -22 -23 -24 -85 -68 -94 -68 -3 0 -17 -12 -32 -26
-15 -14 -37 -30 -49 -35 -13 -4 -23 -15 -23 -24 0 -8 -3 -15 -7 -16 -34 -3
-51 -13 -87 -48 -23 -23 -47 -41 -54 -41 -7 0 -12 -7 -12 -16 0 -8 -4 -13 -8
-10 -4 2 -25 -11 -47 -30 -22 -19 -45 -34 -52 -34 -7 0 -19 -13 -28 -30 -9
-17 -24 -30 -35 -30 -12 0 -20 -8 -22 -22 -2 -14 -9 -22 -19 -20 -8 1 -24 -6
-35 -16 -10 -10 -27 -21 -38 -25 -10 -4 -16 -13 -13 -21 4 -9 -4 -16 -24 -20
-19 -4 -33 -14 -39 -31 -6 -15 -14 -23 -20 -20 -5 3 -10 -2 -10 -11 0 -10 -3
-15 -6 -11 -6 6 -17 -1 -55 -35 -10 -10 -23 -18 -29 -18 -5 0 -10 -6 -10 -14
0 -8 -16 -24 -35 -36 -19 -12 -33 -26 -29 -31 3 -5 -2 -9 -10 -9 -9 0 -16 -5
-16 -10 0 -6 -22 -32 -48 -58 -58 -57 -73 -109 -41 -138 10 -9 22 -14 26 -10
4 4 1 11 -7 17 -11 7 -7 8 13 3 24 -6 27 -4 28 22 0 16 3 23 6 17 2 -7 9 -13
15 -13 6 0 8 6 5 14 -3 8 1 13 11 12 11 -1 16 6 15 18 -1 12 2 15 9 8 11 -11
38 7 38 26 0 9 31 23 56 26 6 1 19 8 28 15 16 14 58 21 119 21 15 0 27 4 27 8
0 5 19 9 41 9 46 0 65 17 96 83 9 19 23 42 30 51 8 10 15 31 15 48 1 19 6 31
15 31 7 0 13 7 13 14 0 8 12 28 26 43 14 15 30 37 36 48 24 53 85 125 105 125
6 0 14 9 18 20 3 11 9 19 13 18 12 -2 46 15 66 34 10 9 23 15 28 12 4 -3 8 3
8 13 0 15 2 16 11 3 8 -11 12 -12 16 -2 2 6 15 12 28 12 13 0 27 5 31 11 3 6
15 9 25 6 10 -3 22 -1 25 4 3 5 9 7 13 5 6 -4 94 -16 143 -19 9 -1 16 -6 15
-12 -1 -5 7 -9 18 -8 11 1 24 -5 28 -13 4 -8 15 -14 22 -14 8 0 15 -4 15 -10
0 -5 7 -10 15 -10 8 0 16 -6 17 -12 0 -7 2 -18 2 -24 1 -6 7 -19 15 -28 7 -9
11 -16 7 -16 -4 0 3 -18 14 -39 14 -29 16 -41 7 -44 -9 -3 -9 -8 2 -20 7 -10
10 -17 5 -17 -5 0 -14 -12 -21 -26 -9 -20 -9 -26 2 -30 18 -7 9 -31 -15 -37
-13 -3 -17 -11 -14 -24 3 -12 -6 -30 -25 -51 -17 -17 -31 -38 -31 -47 0 -8
-13 -21 -30 -30 -16 -9 -30 -19 -30 -23 0 -4 -25 -22 -55 -40 -78 -47 -175
-48 -233 -4 -47 36 -27 106 31 109 16 0 34 9 42 19 7 11 16 16 20 12 4 -3 20
5 36 19 23 21 28 33 27 70 0 24 -6 60 -13 80 -11 31 -17 36 -48 39 -20 2 -46
8 -57 14 -16 9 -25 8 -36 0 -7 -7 -21 -10 -29 -6 -9 3 -24 -2 -34 -12 -11 -9
-30 -25 -44 -34 -23 -16 -25 -24 -26 -95 0 -59 5 -87 20 -116 11 -21 17 -43
14 -48 -4 -5 -1 -9 4 -9 6 0 10 -4 8 -8 -3 -11 49 -72 62 -72 5 0 15 -8 20
-17 6 -10 11 -14 11 -9 0 5 7 3 15 -4 15 -12 34 -16 128 -24 48 -5 66 -2 100
17 23 12 45 26 48 31 4 5 11 6 17 2 6 -3 17 3 25 15 11 15 16 17 20 7 3 -8 9
-2 16 15 6 16 15 26 20 23 5 -3 11 3 14 14 5 21 27 28 27 9 0 -8 5 -8 15 1 8
7 15 19 15 27 0 7 7 16 15 19 29 11 44 66 43 150 -1 44 2 86 6 93 5 7 1 20
-10 32 -9 10 -13 19 -9 19 5 0 4 5 -3 12 -7 7 -12 19 -12 27 0 9 -16 33 -35
54 -19 21 -35 42 -35 46 0 11 -40 46 -40 35 0 -5 -5 -1 -11 9 -5 9 -17 17 -24
17 -8 0 -15 5 -15 10 0 6 -7 10 -15 10 -8 0 -35 14 -60 32 -34 24 -45 38 -45
58 0 23 29 78 30 56 0 -5 11 3 25 18 13 14 31 26 40 26 8 0 15 5 15 10 0 6 6
10 14 10 8 0 24 13 37 29 14 18 29 27 38 23 9 -3 13 -2 9 2 -3 4 6 21 20 38
44 49 32 65 -36 48z"/>
</g>
</svg>
